<svg xmlns="http://www.w3.org/2000/svg" xmlns:xlink="http://www.w3.org/1999/xlink" viewBox="0 0 900 600">
  <path fill="#fff" d="M150 0v600h600v-600"/>
  <path fill="#d52b1e" d="M0 0h150v600h-150m750 0h150v-600h-150"/>
  <path id="h" fill="#d52b1e" d="M-18-406L-8.955-233.418A19 19 0 0 1-31.229-213.712L-203-244-179.705-179.999A13 13 0 0 1-183.740-165.450L-372-13-329.678 6.735A13 13 0 0 1-322.808 22.534L-360 137-251.637 113.967A13 13 0 0 1-236.968 121.603L-216 171-131.369 80.245A13 13 0 0 1-109.101 91.591L-150 302-84.543 264.208A13 13 0 0 1-66.460 269.565L0 400 66.460 269.565 8.955-233.418 18-406" transform="scale(0.625-0.625)translate(720-480)"/>
  <use xlink:href="#h" transform="scale(-1 1) translate(-900 0)"/>
</svg>