<svg xmlns="http://www.w3.org/2000/svg" viewBox="0 0 300 200">
  <path fill="#f15e1a" d="M0 0h300v200h-300"/>
  <path fill="#fff" d="M0 67h300v133h-300"/>
  <path fill="#0a6625" d="M0 133h300v67h-300"/>
  <circle r="27" cx="150" cy="100" fill="none" stroke="#2d2174" stroke-width="4"/>
  <circle r="5" cx="150" cy="100" fill="#2d2174"/>
  <path id="line" stroke="#2d2174" stroke-width="1" d="M150 73v54"/>
  <use href="#line" transform="rotate(10 150 100)"/>
  <use href="#line" transform="rotate(20 150 100)"/>
  <use href="#line" transform="rotate(30 150 100)"/>
  <use href="#line" transform="rotate(40 150 100)"/>
  <use href="#line" transform="rotate(50 150 100)"/>
  <use href="#line" transform="rotate(60 150 100)"/>
  <use href="#line" transform="rotate(70 150 100)"/>
  <use href="#line" transform="rotate(80 150 100)"/>
  <use href="#line" transform="rotate(90 150 100)"/>
  <use href="#line" transform="rotate(100 150 100)"/>
  <use href="#line" transform="rotate(110 150 100)"/>
  <use href="#line" transform="rotate(120 150 100)"/>
  <use href="#line" transform="rotate(130 150 100)"/>
  <use href="#line" transform="rotate(140 150 100)"/>
  <use href="#line" transform="rotate(150 150 100)"/>
  <use href="#line" transform="rotate(160 150 100)"/>
  <use href="#line" transform="rotate(170 150 100)"/>
</svg>