<svg xmlns="http://www.w3.org/2000/svg" xmlns:xlink="http://www.w3.org/1999/xlink" viewBox="0 0 900 600">
  <path fill="#012168" d="M0 0h900v600h-900"/>
  <g id="t">
    <path id="w" fill="#fff" d="M0 0h108.138l450 300h-108.138v72.12l-450-300"/>
    <use xlink:href="#w" transform="translate(0 600)scale(1-1)"/>
  </g>
  <use xlink:href="#t" transform="translate(900 0)scale(-1 1)"/>
  <path id="r" fill="#c9102e" d="M900 600v-48.08l-450-300v48.08l-450 300h72.092l450-300v48.08"/>
  <use xlink:href="#r" transform="translate(900 600)scale(-1-1)"/>
  <path fill="#fff" d="M0 200h350v-200h200v200h350v200h-350v200h-200v-200h-350"/>
  <path fill="#c9102e" d="M0 240v120h390v240h120v-240h390v-120h-390v-240h-120v240"/>
</svg>