<svg xmlns="http://www.w3.org/2000/svg" viewBox="0 0 300 200">
  <path fill="#fff" d="M0 0h300v200h-300"/>
  <path fill="#b83a3a" d="M0 0h300v15h-300M0 31h300v15h-300M0 62h300v15h-300M0 92h300v15h-300M0 123h300v15h-300M0 154h300v15h-300M0 185h300v15h-300"/>
  <path fill="#3a3a91" d="M0 0v107h150v-107"/>
  <g transform="translate(0.7 11)scale(1.27 1.1)">
    <g id="pair">
      <g id="short-row" transform="translate(9.5 0)">
        <path fill="#fff" id="star" d="M49 25l6 17h18l-15 11 5 17-14-10-14 10 5-17-15-11h18" transform="scale(0.2)"/>
        <use href="#star" transform="translate(19 0)"/>
        <use href="#star" transform="translate(38 0)"/>
        <use href="#star" transform="translate(57 0)"/>
        <use href="#star" transform="translate(76 0)"/>
      </g>
      <g id="long-row" transform="translate(0 9)">
        <use href="#star"/>
        <use href="#short-row" transform="translate(9.5 0)"/>
      </g>
    </g>
    <use href="#long-row" transform="translate(0-19)"/>
    <use href="#pair" transform="translate(0 19)"/>
    <use href="#pair" transform="translate(0 38)"/>
    <use href="#pair" transform="translate(0 57)"/>
  </g>
</svg>